<svg width="209" height="269" viewBox="0 0 209 269" fill="none" xmlns="http://www.w3.org/2000/svg">
<g filter="url(#filter0_dd_507_79)">
<path d="M160.378 0.494655C160.378 0.221464 160.605 0 160.885 0H176.035C176.314 0 176.541 0.221464 176.541 0.494655C176.541 0.767845 176.314 0.989309 176.035 0.989309H160.885C160.605 0.989309 160.378 0.767845 160.378 0.494655Z" fill="#EBECF0"/>
<path d="M188.493 18.4241C188.773 18.4241 189 18.6455 189 18.9187L189 27.0191C189 27.2923 188.773 27.5137 188.493 27.5137C188.214 27.5137 187.987 27.2923 187.987 27.0191L187.987 18.9187C187.987 18.6455 188.214 18.4241 188.493 18.4241Z" fill="#EBECF0"/>
<path d="M188.493 29.5127C188.773 29.5127 189 29.7342 189 30.0074L189 38.1077C189 38.3809 188.773 38.6024 188.493 38.6024C188.214 38.6024 187.987 38.3809 187.987 38.1077L187.987 30.0073C187.987 29.7342 188.214 29.5127 188.493 29.5127Z" fill="#EBECF0"/>
<path d="M20 11.5298C20 5.44033 25.0563 0.503845 31.2935 0.503845H177.2C183.437 0.503845 188.493 5.44034 188.493 11.5298V217.636C188.493 223.726 183.437 228.662 177.2 228.662H31.2935C25.0563 228.662 20 223.726 20 217.636V11.5298Z" fill="#F5F5F5"/>
<path d="M20.8586 11.9392C20.8586 6.17892 25.6416 1.50928 31.5417 1.50928H176.873C182.774 1.50928 187.557 6.17894 187.557 11.9393V217.289C187.557 223.049 182.774 227.719 176.873 227.719H31.5417C25.6416 227.719 20.8586 223.049 20.8586 217.289V11.9392Z" fill="#ECEDEF"/>
<path d="M29.4124 12.7457C29.4124 11.0176 30.8472 9.6167 32.6173 9.6167H176.089C177.859 9.6167 179.294 11.0176 179.294 12.7457V216.493C179.294 218.221 177.859 219.622 176.089 219.622H32.6173C30.8472 219.622 29.4124 218.221 29.4124 216.493V12.7457Z" fill="#1E1E1E"/>
<rect x="29.3784" y="9.52258" width="150.055" height="210.228" rx="3" fill="#D2D5DA"/>
<ellipse cx="104.207" cy="5.78439" rx="1.68403" ry="1.64413" fill="#BCBDBF"/>
</g>
<defs>
<filter id="filter0_dd_507_79" x="0" y="0" width="209" height="268.662" filterUnits="userSpaceOnUse" color-interpolation-filters="sRGB">
<feFlood flood-opacity="0" result="BackgroundImageFix"/>
<feColorMatrix in="SourceAlpha" type="matrix" values="0 0 0 0 0 0 0 0 0 0 0 0 0 0 0 0 0 0 127 0" result="hardAlpha"/>
<feMorphology radius="5" operator="erode" in="SourceAlpha" result="effect1_dropShadow_507_79"/>
<feOffset dy="20"/>
<feGaussianBlur stdDeviation="12.5"/>
<feComposite in2="hardAlpha" operator="out"/>
<feColorMatrix type="matrix" values="0 0 0 0 0 0 0 0 0 0 0 0 0 0 0 0 0 0 0.1 0"/>
<feBlend mode="normal" in2="BackgroundImageFix" result="effect1_dropShadow_507_79"/>
<feColorMatrix in="SourceAlpha" type="matrix" values="0 0 0 0 0 0 0 0 0 0 0 0 0 0 0 0 0 0 127 0" result="hardAlpha"/>
<feOffset dy="10"/>
<feGaussianBlur stdDeviation="5"/>
<feComposite in2="hardAlpha" operator="out"/>
<feColorMatrix type="matrix" values="0 0 0 0 0 0 0 0 0 0 0 0 0 0 0 0 0 0 0.04 0"/>
<feBlend mode="normal" in2="effect1_dropShadow_507_79" result="effect2_dropShadow_507_79"/>
<feBlend mode="normal" in="SourceGraphic" in2="effect2_dropShadow_507_79" result="shape"/>
</filter>
</defs>
</svg>
