<svg width="63" height="73" viewBox="0 0 63 73" fill="none" xmlns="http://www.w3.org/2000/svg">
<g filter="url(#filter0_dd_507_79)">
<path d="M39.1047 0.070657C39.1047 0.0316342 39.1356 0 39.1737 0H41.2355C41.2736 0 41.3045 0.0316342 41.3045 0.070657C41.3045 0.10968 41.2736 0.141314 41.2355 0.141314H39.1737C39.1356 0.141314 39.1047 0.10968 39.1047 0.070657Z" fill="#EBECF0"/>
<path d="M42.931 2.63171C42.9691 2.63171 43 2.66335 43 2.70237L43 3.85943C43 3.89846 42.9691 3.93009 42.931 3.93009C42.8929 3.93009 42.8621 3.89846 42.8621 3.85943L42.8621 2.70237C42.8621 2.66335 42.8929 2.63171 42.931 2.63171Z" fill="#EBECF0"/>
<path d="M42.931 4.21564C42.9691 4.21564 43 4.24727 43 4.28629L43 5.44336C43 5.48238 42.9691 5.51401 42.931 5.51401C42.8929 5.51401 42.8621 5.48238 42.8621 5.44336L42.8621 4.28629C42.8621 4.24727 42.8929 4.21564 42.931 4.21564Z" fill="#EBECF0"/>
<path d="M20 1.64692C20 0.777093 20.6881 0.0719604 21.537 0.0719604H41.3941C42.243 0.0719604 42.9311 0.777095 42.9311 1.64692V31.0874C42.9311 31.9572 42.243 32.6623 41.3941 32.6623H21.537C20.6881 32.6623 20 31.9572 20 31.0874V1.64692Z" fill="#F5F5F5"/>
<path d="M20.1169 1.7054C20.1169 0.882593 20.7679 0.215576 21.5709 0.215576H41.3498C42.1528 0.215576 42.8037 0.882595 42.8037 1.7054V31.0378C42.8037 31.8606 42.1528 32.5276 41.3498 32.5276H21.5709C20.7679 32.5276 20.1169 31.8606 20.1169 31.0378V1.7054Z" fill="#ECEDEF"/>
<path d="M21.281 1.82061C21.281 1.57376 21.4763 1.37366 21.7172 1.37366H41.2429C41.4838 1.37366 41.6791 1.57376 41.6791 1.82061V30.9241C41.6791 31.1709 41.4838 31.371 41.2429 31.371H21.7172C21.4763 31.371 21.281 31.1709 21.281 30.9241V1.82061Z" fill="#1E1E1E"/>
<rect width="20.4218" height="30.0292" transform="translate(21.2764 1.36023)" fill="#D2D5DA"/>
<ellipse cx="31.4601" cy="0.826219" rx="0.229188" ry="0.234849" fill="#BCBDBF"/>
</g>
<defs>
<filter id="filter0_dd_507_79" x="0" y="0" width="63" height="72.6624" filterUnits="userSpaceOnUse" color-interpolation-filters="sRGB">
<feFlood flood-opacity="0" result="BackgroundImageFix"/>
<feColorMatrix in="SourceAlpha" type="matrix" values="0 0 0 0 0 0 0 0 0 0 0 0 0 0 0 0 0 0 127 0" result="hardAlpha"/>
<feMorphology radius="5" operator="erode" in="SourceAlpha" result="effect1_dropShadow_507_79"/>
<feOffset dy="20"/>
<feGaussianBlur stdDeviation="12.5"/>
<feComposite in2="hardAlpha" operator="out"/>
<feColorMatrix type="matrix" values="0 0 0 0 0 0 0 0 0 0 0 0 0 0 0 0 0 0 0.1 0"/>
<feBlend mode="normal" in2="BackgroundImageFix" result="effect1_dropShadow_507_79"/>
<feColorMatrix in="SourceAlpha" type="matrix" values="0 0 0 0 0 0 0 0 0 0 0 0 0 0 0 0 0 0 127 0" result="hardAlpha"/>
<feOffset dy="10"/>
<feGaussianBlur stdDeviation="5"/>
<feComposite in2="hardAlpha" operator="out"/>
<feColorMatrix type="matrix" values="0 0 0 0 0 0 0 0 0 0 0 0 0 0 0 0 0 0 0.04 0"/>
<feBlend mode="normal" in2="effect1_dropShadow_507_79" result="effect2_dropShadow_507_79"/>
<feBlend mode="normal" in="SourceGraphic" in2="effect2_dropShadow_507_79" result="shape"/>
</filter>
</defs>
</svg>
